{
    "asset": {
        "generator": "Khronos glTF Spline I/O v0.0.1",
        "version": "2.0"
    },
    "scenes": [{
        "nodes": [0]
    }],
    "nodes": [{
        "name": "",
        "children": [1, 2, 3, 4, 5, 6]
    }, {
        "name": "Empty Object copy",
        "matrix": [2.2204460492503244e-16, 0, 1.000000000000005, 0, 0, 1, 0, 0, -1.000000000000005, 0, 2.2204460492503244e-16, 0, 0.3499999999999934, -2.0000000000005684, 2.300918587574131, 1],
        "children": [7, 8, 9]
    }, {
        "name": "Ellipse",
        "matrix": [-1, 1.2246467991473532e-16, 1.4997597826618576e-32, 0, 1.2246467991473532e-16, 1, 1.2246467991473532e-16, 0, 0, 1.2246467991473532e-16, -1, 0, 969.675340174246, 521.0053595204439, -1390.909104938158, 1],
        "mesh": 0
    }, {
        "name": "Rectangle",
        "matrix": [1.5, 0, 0, 0, 0, 1.5, 0, 0, 0, 0, 1.5, 0, 0, 0, -1344.0554027744397, 1],
        "mesh": 1
    }, {
        "name": "Empty Object",
        "matrix": [2.5, 0, 0, 0, 0, 2.5, 0, 0, 0, 0, 2.5, 0, -1, -12, 0, 1],
        "children": [11]
    }, {
        "name": "Empty Object 6",
        "matrix": [-0.800000000000014, 0, -3.5527136788005632e-16, 0, 0, 0.7999999999999968, 0, 0, 3.5527136788005632e-16, 0, -0.800000000000014, 0, 2.0608320345283757, 1.5000000000000004, -935.0000000000166, 1],
        "children": [12, 13, 14]
    }, {
        "name": "Empty Object 7",
        "matrix": [-3.552713678800701e-16, 9.797174393179211e-17, 0.8000000000000451, 0, 9.797174393179004e-17, 0.8, -9.797174393178995e-17, 0, -0.8000000000000451, 9.797174393179207e-17, -3.552713678800701e-16, 0, -938.3853179780907, 2.0129073115127767, 0.37030036558370405, 1],
        "children": [15, 16, 17]
    }, {
        "name": "Empty Object 4",
        "matrix": [1.7763568394002816e-16, 0, -0.800000000000014, 0, 0, 0.8, 0, 0, 0.800000000000014, 0, 1.7763568394002816e-16, 0, 951.3422811978121, 2.5, -9.000000000000016, 1],
        "children": [18, 19, 20]
    }, {
        "name": "Default Directional Light",
        "translation": [850000, 1300000, 1000000],
        "rotation": [-0.45895513091666534, 0.1367267597249462, -0.25064115022945466, 0.8413352451859125],
        "extensions": {
            "KHR_lights_punctual": {
                "light": 0
            }
        }
    }, {
        "name": "Sphere",
        "matrix": [1, 0, 0, 0, 0, 1, 0, 0, 0, 0, 1, 0, 0, 0, 0, 1],
        "mesh": 2
    }, {
        "name": "Rectangle 3",
        "matrix": [1.02, 0, 0, 0, 0, 1.0200000000000014, 0, 0, 0, 0, 1.02, 0, 1, 0, -520.5496091361792, 1],
        "mesh": 3
    }, {
        "name": "Rectangle",
        "matrix": [1.05, 0, 0, 0, 0, 1.05, 0, 0, 0, 0, 1, 0, 2.924049891106506e-14, 0, -548.4613358265342, 1],
        "mesh": 4
    }, {
        "name": "Rectangle 2",
        "matrix": [1.02, 0, 0, 0, 0, 1.02, 0, 0, 0, 0, 1.02, 0, 1, 0, -516.4613358265342, 1],
        "mesh": 5
    }, {
        "name": "Rectangle 3",
        "matrix": [1.02, 0, 0, 0, 0, 1.0200000000000014, 0, 0, 0, 0, 1.02, 0, 1, 0, -520.5496091361792, 1],
        "mesh": 6
    }, {
        "name": "Rectangle",
        "matrix": [1.05, 0, 0, 0, 0, 1.05, 0, 0, 0, 0, 1, 0, 1.4210854715202004e-14, -4.440892098500626e-16, -548.4613358265345, 1],
        "mesh": 7
    }, {
        "name": "Rectangle 2",
        "matrix": [1.02, 0, 0, 0, 0, 1.02, 0, 0, 0, 0, 1.02, 0, 1, 0, -516.4613358265342, 1],
        "mesh": 8
    }, {
        "name": "Rectangle 3",
        "matrix": [1.02, 0, 0, 0, 0, 1.02, 0, 0, 0, 0, 1.0199999999999987, 0, 1, 0, -520.5496091361792, 1],
        "mesh": 9
    }, {
        "name": "Rectangle",
        "matrix": [1.05, 0, 0, 0, 0, 1.05, 0, 0, 0, 0, 1, 0, 3.4409974869475946e-14, 0, -548.4613358265341, 1],
        "mesh": 10
    }, {
        "name": "Rectangle 2",
        "matrix": [1.02, 0, 0, 0, 0, 1.02, 0, 0, 0, 0, 1.02, 0, 1, 0, -516.4613358265342, 1],
        "mesh": 11
    }],
    "meshes": [{
        "primitives": [{
            "attributes": {
                "POSITION": 1,
                "NORMAL": 2,
                "TEXCOORD_0": 3
            },
            "indices": 0
        }]
    }, {
        "primitives": [{
            "attributes": {
                "POSITION": 5,
                "NORMAL": 6,
                "TEXCOORD_0": 7
            },
            "indices": 4
        }]
    }, {
        "primitives": [{
            "attributes": {
                "POSITION": 9,
                "NORMAL": 10,
                "TEXCOORD_0": 11
            },
            "indices": 8
        }]
    }, {
        "primitives": [{
            "attributes": {
                "POSITION": 13,
                "NORMAL": 14,
                "TEXCOORD_0": 15
            },
            "indices": 12
        }]
    }, {
        "primitives": [{
            "attributes": {
                "POSITION": 17,
                "NORMAL": 18,
                "TEXCOORD_0": 19
            },
            "indices": 16
        }]
    }, {
        "primitives": [{
            "attributes": {
                "POSITION": 21,
                "NORMAL": 22,
                "TEXCOORD_0": 23
            },
            "indices": 20
        }]
    }, {
        "primitives": [{
            "attributes": {
                "POSITION": 25,
                "NORMAL": 26,
                "TEXCOORD_0": 27
            },
            "indices": 24
        }]
    }, {
        "primitives": [{
            "attributes": {
                "POSITION": 29,
                "NORMAL": 30,
                "TEXCOORD_0": 31
            },
            "indices": 28
        }]
    }, {
        "primitives": [{
            "attributes": {
                "POSITION": 33,
                "NORMAL": 34,
                "TEXCOORD_0": 35
            },
            "indices": 32
        }]
    }, {
        "primitives": [{
            "attributes": {
                "POSITION": 37,
                "NORMAL": 38,
                "TEXCOORD_0": 39
            },
            "indices": 36
        }]
    }, {
        "primitives": [{
            "attributes": {
                "POSITION": 41,
                "NORMAL": 42,
                "TEXCOORD_0": 43
            },
            "indices": 40
        }]
    }, {
        "primitives": [{
            "attributes": {
                "POSITION": 45,
                "NORMAL": 46,
                "TEXCOORD_0": 47
            },
            "indices": 44
        }]
    }],
    "buffers": [{
        "uri": "data:application/octet-stream;base64,",
        "byteLength": 55248
    }, {
        "uri": "data:application/octet-stream;base64,",
        "byteLength": 2448
    }, {
        "uri": "data:application/octet-stream;base64,",
        "byteLength": 183584
    }, {
        "uri": "data:application/octet-stream;base64,",
        "byteLength": 70800
    }, {
        "uri": "data:application/octet-stream;base64,",
        "byteLength": 464400
    }, {
        "uri": "data:application/octet-stream;base64,",
        "byteLength": 70800
    }, {
        "uri": "data:application/octet-stream;base64,",
        "byteLength": 70800
    }, {
        "uri": "data:application/octet-stream;base64,",
        "byteLength": 464400
    }, {
        "uri": "data:application/octet-stream;base64,",
        "byteLength": 70800
    }, {
        "uri": "data:application/octet-stream;base64,",
        "byteLength": 70800
    }, {
        "uri": "data:application/octet-stream;base64,",
        "byteLength": 464400
    }, {
        "uri": "data:application/octet-stream;base64,",
        "byteLength": 70800
    }],
    "bufferViews": [{
        "buffer": 0,
        "byteOffset": 0,
        "byteLength": 6096,
        "target": 34963
    }, {
        "buffer": 0,
        "byteOffset": 6096,
        "byteLength": 16384,
        "target": 34962
    }, {
        "buffer": 0,
        "byteOffset": 22480,
        "byteLength": 16384,
        "target": 34962
    }, {
        "buffer": 0,
        "byteOffset": 38864,
        "byteLength": 16384,
        "target": 34962
    }, {
        "buffer": 1,
        "byteOffset": 0,
        "byteLength": 144,
        "target": 34963
    }, {
        "buffer": 1,
        "byteOffset": 144,
        "byteLength": 768,
        "target": 34962
    }, {
        "buffer": 1,
        "byteOffset": 912,
        "byteLength": 768,
        "target": 34962
    }, {
        "buffer": 1,
        "byteOffset": 1680,
        "byteLength": 768,
        "target": 34962
    }, {
        "buffer": 2,
        "byteOffset": 0,
        "byteLength": 48384,
        "target": 34963
    }, {
        "buffer": 2,
        "byteOffset": 48384,
        "byteLength": 50700,
        "target": 34962
    }, {
        "buffer": 2,
        "byteOffset": 99084,
        "byteLength": 50700,
        "target": 34962
    }, {
        "buffer": 2,
        "byteOffset": 149784,
        "byteLength": 33800,
        "target": 34962
    }, {
        "buffer": 3,
        "byteOffset": 0,
        "byteLength": 7824,
        "target": 34963
    }, {
        "buffer": 3,
        "byteOffset": 7824,
        "byteLength": 20992,
        "target": 34962
    }, {
        "buffer": 3,
        "byteOffset": 28816,
        "byteLength": 20992,
        "target": 34962
    }, {
        "buffer": 3,
        "byteOffset": 49808,
        "byteLength": 20992,
        "target": 34962
    }, {
        "buffer": 4,
        "byteOffset": 0,
        "byteLength": 86544,
        "target": 34963
    }, {
        "buffer": 4,
        "byteOffset": 86544,
        "byteLength": 125952,
        "target": 34962
    }, {
        "buffer": 4,
        "byteOffset": 212496,
        "byteLength": 125952,
        "target": 34962
    }, {
        "buffer": 4,
        "byteOffset": 338448,
        "byteLength": 125952,
        "target": 34962
    }, {
        "buffer": 5,
        "byteOffset": 0,
        "byteLength": 7824,
        "target": 34963
    }, {
        "buffer": 5,
        "byteOffset": 7824,
        "byteLength": 20992,
        "target": 34962
    }, {
        "buffer": 5,
        "byteOffset": 28816,
        "byteLength": 20992,
        "target": 34962
    }, {
        "buffer": 5,
        "byteOffset": 49808,
        "byteLength": 20992,
        "target": 34962
    }, {
        "buffer": 6,
        "byteOffset": 0,
        "byteLength": 7824,
        "target": 34963
    }, {
        "buffer": 6,
        "byteOffset": 7824,
        "byteLength": 20992,
        "target": 34962
    }, {
        "buffer": 6,
        "byteOffset": 28816,
        "byteLength": 20992,
        "target": 34962
    }, {
        "buffer": 6,
        "byteOffset": 49808,
        "byteLength": 20992,
        "target": 34962
    }, {
        "buffer": 7,
        "byteOffset": 0,
        "byteLength": 86544,
        "target": 34963
    }, {
        "buffer": 7,
        "byteOffset": 86544,
        "byteLength": 125952,
        "target": 34962
    }, {
        "buffer": 7,
        "byteOffset": 212496,
        "byteLength": 125952,
        "target": 34962
    }, {
        "buffer": 7,
        "byteOffset": 338448,
        "byteLength": 125952,
        "target": 34962
    }, {
        "buffer": 8,
        "byteOffset": 0,
        "byteLength": 7824,
        "target": 34963
    }, {
        "buffer": 8,
        "byteOffset": 7824,
        "byteLength": 20992,
        "target": 34962
    }, {
        "buffer": 8,
        "byteOffset": 28816,
        "byteLength": 20992,
        "target": 34962
    }, {
        "buffer": 8,
        "byteOffset": 49808,
        "byteLength": 20992,
        "target": 34962
    }, {
        "buffer": 9,
        "byteOffset": 0,
        "byteLength": 7824,
        "target": 34963
    }, {
        "buffer": 9,
        "byteOffset": 7824,
        "byteLength": 20992,
        "target": 34962
    }, {
        "buffer": 9,
        "byteOffset": 28816,
        "byteLength": 20992,
        "target": 34962
    }, {
        "buffer": 9,
        "byteOffset": 49808,
        "byteLength": 20992,
        "target": 34962
    }, {
        "buffer": 10,
        "byteOffset": 0,
        "byteLength": 86544,
        "target": 34963
    }, {
        "buffer": 10,
        "byteOffset": 86544,
        "byteLength": 125952,
        "target": 34962
    }, {
        "buffer": 10,
        "byteOffset": 212496,
        "byteLength": 125952,
        "target": 34962
    }, {
        "buffer": 10,
        "byteOffset": 338448,
        "byteLength": 125952,
        "target": 34962
    }, {
        "buffer": 11,
        "byteOffset": 0,
        "byteLength": 7824,
        "target": 34963
    }, {
        "buffer": 11,
        "byteOffset": 7824,
        "byteLength": 20992,
        "target": 34962
    }, {
        "buffer": 11,
        "byteOffset": 28816,
        "byteLength": 20992,
        "target": 34962
    }, {
        "buffer": 11,
        "byteOffset": 49808,
        "byteLength": 20992,
        "target": 34962
    }],
    "accessors": [{
        "bufferView": 0,
        "byteOffset": 0,
        "componentType": 5125,
        "count": 1524,
        "type": "SCALAR",
        "min": [0],
        "max": [511]
    }, {
        "bufferView": 1,
        "byteOffset": 0,
        "componentType": 5126,
        "count": 512,
        "type": "VEC3",
        "min": [-812.5, -812.5, 0],
        "max": [812.5, 812.5, 10]
    }, {
        "bufferView": 2,
        "byteOffset": 0,
        "componentType": 5126,
        "count": 512,
        "type": "VEC3",
        "min": [-0.9996804594993591, -0.9996804594993591, -1],
        "max": [0.9996804594993591, 0.9996804594993591, 1]
    }, {
        "bufferView": 3,
        "byteOffset": 0,
        "componentType": 5126,
        "count": 512,
        "type": "VEC2",
        "min": [0, 0],
        "max": [1, 1]
    }, {
        "bufferView": 4,
        "byteOffset": 0,
        "componentType": 5125,
        "count": 36,
        "type": "SCALAR",
        "min": [0],
        "max": [23]
    }, {
        "bufferView": 5,
        "byteOffset": 0,
        "componentType": 5126,
        "count": 24,
        "type": "VEC3",
        "min": [-1335.5, -873.5, 0],
        "max": [1335.5, 873.5, 24]
    }, {
        "bufferView": 6,
        "byteOffset": 0,
        "componentType": 5126,
        "count": 24,
        "type": "VEC3",
        "min": [-1, -1, -1],
        "max": [1, 1, 1]
    }, {
        "bufferView": 7,
        "byteOffset": 0,
        "componentType": 5126,
        "count": 24,
        "type": "VEC2",
        "min": [0, 0],
        "max": [1, 1]
    }, {
        "bufferView": 8,
        "byteOffset": 0,
        "componentType": 5123,
        "count": 24192,
        "type": "SCALAR",
        "min": [0],
        "max": [4224]
    }, {
        "bufferView": 9,
        "byteOffset": 0,
        "componentType": 5126,
        "count": 4225,
        "type": "VEC3",
        "min": [-177, -177, -177],
        "max": [177, 177, 177]
    }, {
        "bufferView": 10,
        "byteOffset": 0,
        "componentType": 5126,
        "count": 4225,
        "type": "VEC3",
        "min": [-1, -1, -1],
        "max": [1, 1, 1]
    }, {
        "bufferView": 11,
        "byteOffset": 0,
        "componentType": 5126,
        "count": 4225,
        "type": "VEC2",
        "min": [-0.0078125, 0],
        "max": [1.0078125, 1]
    }, {
        "bufferView": 12,
        "byteOffset": 0,
        "componentType": 5125,
        "count": 1956,
        "type": "SCALAR",
        "min": [0],
        "max": [655]
    }, {
        "bufferView": 13,
        "byteOffset": 0,
        "componentType": 5126,
        "count": 656,
        "type": "VEC3",
        "min": [-407, -284, 0],
        "max": [407, 284, 8]
    }, {
        "bufferView": 14,
        "byteOffset": 0,
        "componentType": 5126,
        "count": 656,
        "type": "VEC3",
        "min": [-1, -1, -1],
        "max": [1, 1, 1]
    }, {
        "bufferView": 15,
        "byteOffset": 0,
        "componentType": 5126,
        "count": 656,
        "type": "VEC2",
        "min": [0, 0],
        "max": [1, 1]
    }, {
        "bufferView": 16,
        "byteOffset": 0,
        "componentType": 5125,
        "count": 21636,
        "type": "SCALAR",
        "min": [0],
        "max": [3935]
    }, {
        "bufferView": 17,
        "byteOffset": 0,
        "componentType": 5126,
        "count": 3936,
        "type": "VEC3",
        "min": [-439.5199890136719, -319.4800109863281, 0],
        "max": [439.5199890136719, 319.4800109863281, 32]
    }, {
        "bufferView": 18,
        "byteOffset": 0,
        "componentType": 5126,
        "count": 3936,
        "type": "VEC3",
        "min": [-1, -1, -1],
        "max": [1, 1, 1]
    }, {
        "bufferView": 19,
        "byteOffset": 0,
        "componentType": 5126,
        "count": 3936,
        "type": "VEC2",
        "min": [0, 0],
        "max": [1, 1]
    }, {
        "bufferView": 20,
        "byteOffset": 0,
        "componentType": 5125,
        "count": 1956,
        "type": "SCALAR",
        "min": [0],
        "max": [655]
    }, {
        "bufferView": 21,
        "byteOffset": 0,
        "componentType": 5126,
        "count": 656,
        "type": "VEC3",
        "min": [-407, -284, 0],
        "max": [407, 284, 1]
    }, {
        "bufferView": 22,
        "byteOffset": 0,
        "componentType": 5126,
        "count": 656,
        "type": "VEC3",
        "min": [-1, -1, -1],
        "max": [1, 1, 1]
    }, {
        "bufferView": 23,
        "byteOffset": 0,
        "componentType": 5126,
        "count": 656,
        "type": "VEC2",
        "min": [0, 0],
        "max": [1, 1]
    }, {
        "bufferView": 24,
        "byteOffset": 0,
        "componentType": 5125,
        "count": 1956,
        "type": "SCALAR",
        "min": [0],
        "max": [655]
    }, {
        "bufferView": 25,
        "byteOffset": 0,
        "componentType": 5126,
        "count": 656,
        "type": "VEC3",
        "min": [-407, -284, 0],
        "max": [407, 284, 8]
    }, {
        "bufferView": 26,
        "byteOffset": 0,
        "componentType": 5126,
        "count": 656,
        "type": "VEC3",
        "min": [-1, -1, -1],
        "max": [1, 1, 1]
    }, {
        "bufferView": 27,
        "byteOffset": 0,
        "componentType": 5126,
        "count": 656,
        "type": "VEC2",
        "min": [0, 0],
        "max": [1, 1]
    }, {
        "bufferView": 28,
        "byteOffset": 0,
        "componentType": 5125,
        "count": 21636,
        "type": "SCALAR",
        "min": [0],
        "max": [3935]
    }, {
        "bufferView": 29,
        "byteOffset": 0,
        "componentType": 5126,
        "count": 3936,
        "type": "VEC3",
        "min": [-439.5199890136719, -319.4800109863281, 0],
        "max": [439.5199890136719, 319.4800109863281, 32]
    }, {
        "bufferView": 30,
        "byteOffset": 0,
        "componentType": 5126,
        "count": 3936,
        "type": "VEC3",
        "min": [-1, -1, -1],
        "max": [1, 1, 1]
    }, {
        "bufferView": 31,
        "byteOffset": 0,
        "componentType": 5126,
        "count": 3936,
        "type": "VEC2",
        "min": [0, 0],
        "max": [1, 1]
    }, {
        "bufferView": 32,
        "byteOffset": 0,
        "componentType": 5125,
        "count": 1956,
        "type": "SCALAR",
        "min": [0],
        "max": [655]
    }, {
        "bufferView": 33,
        "byteOffset": 0,
        "componentType": 5126,
        "count": 656,
        "type": "VEC3",
        "min": [-407, -284, 0],
        "max": [407, 284, 1]
    }, {
        "bufferView": 34,
        "byteOffset": 0,
        "componentType": 5126,
        "count": 656,
        "type": "VEC3",
        "min": [-1, -1, -1],
        "max": [1, 1, 1]
    }, {
        "bufferView": 35,
        "byteOffset": 0,
        "componentType": 5126,
        "count": 656,
        "type": "VEC2",
        "min": [0, 0],
        "max": [1, 1]
    }, {
        "bufferView": 36,
        "byteOffset": 0,
        "componentType": 5125,
        "count": 1956,
        "type": "SCALAR",
        "min": [0],
        "max": [655]
    }, {
        "bufferView": 37,
        "byteOffset": 0,
        "componentType": 5126,
        "count": 656,
        "type": "VEC3",
        "min": [-407, -284, 0],
        "max": [407, 284, 8]
    }, {
        "bufferView": 38,
        "byteOffset": 0,
        "componentType": 5126,
        "count": 656,
        "type": "VEC3",
        "min": [-1, -1, -1],
        "max": [1, 1, 1]
    }, {
        "bufferView": 39,
        "byteOffset": 0,
        "componentType": 5126,
        "count": 656,
        "type": "VEC2",
        "min": [0, 0],
        "max": [1, 1]
    }, {
        "bufferView": 40,
        "byteOffset": 0,
        "componentType": 5125,
        "count": 21636,
        "type": "SCALAR",
        "min": [0],
        "max": [3935]
    }, {
        "bufferView": 41,
        "byteOffset": 0,
        "componentType": 5126,
        "count": 3936,
        "type": "VEC3",
        "min": [-439.5199890136719, -319.4800109863281, 0],
        "max": [439.5199890136719, 319.4800109863281, 32]
    }, {
        "bufferView": 42,
        "byteOffset": 0,
        "componentType": 5126,
        "count": 3936,
        "type": "VEC3",
        "min": [-1, -1, -1],
        "max": [1, 1, 1]
    }, {
        "bufferView": 43,
        "byteOffset": 0,
        "componentType": 5126,
        "count": 3936,
        "type": "VEC2",
        "min": [0, 0],
        "max": [1, 1]
    }, {
        "bufferView": 44,
        "byteOffset": 0,
        "componentType": 5125,
        "count": 1956,
        "type": "SCALAR",
        "min": [0],
        "max": [655]
    }, {
        "bufferView": 45,
        "byteOffset": 0,
        "componentType": 5126,
        "count": 656,
        "type": "VEC3",
        "min": [-407, -284, 0],
        "max": [407, 284, 1]
    }, {
        "bufferView": 46,
        "byteOffset": 0,
        "componentType": 5126,
        "count": 656,
        "type": "VEC3",
        "min": [-1, -1, -1],
        "max": [1, 1, 1]
    }, {
        "bufferView": 47,
        "byteOffset": 0,
        "componentType": 5126,
        "count": 656,
        "type": "VEC2",
        "min": [0, 0],
        "max": [1, 1]
    }],
    "extensions": {
        "KHR_lights_punctual": {
            "lights": [{
                "type": "directional",
                "name": "Default Directional Light",
                "color": [1, 1, 1],
                "intensity": 0.75
            }]
        }
    },
    "extensionsUsed": ["KHR_lights_punctual"]
}