{"asset":{"generator":"Khronos glTF Spline I/O v0.0.1","version":"2.0"},"scenes":[{"nodes":[0]}],"nodes":[{"name":"","children":[1,2]},{"name":"Empty Object copy","matrix":[2.2204460492503244e-16,0,1.000000000000005,0,0,1,0,0,-1.000000000000005,0,2.2204460492503244e-16,0,2.349999999999966,-4.000000000000568,2.300918587574131,1],"children":[3,4,5]},{"name":"Personal Camera","camera":0,"translation":[0,-5.245449776424837e-14,1000],"rotation":[-3.061616997868383e-17,0,0,1]},{"name":"Empty Object 6","matrix":[-9.957992501029806e-17,0,1.0000000000000209,0,0,1,0,0,-1.0000000000000209,0,-9.957992501029806e-17,0,2.060832034528111,0.5,-12.200073242187653,1],"children":[6,7,8]},{"name":"Empty Object 7","matrix":[-9.957992501029774e-17,0,1.0000000000000175,0,0,1,0,0,-1.0000000000000175,0,-9.957992501029774e-17,0,2.06083203452811,0.5,-9.000000000000227,1],"children":[9,10,11]},{"name":"Empty Object 4","matrix":[-9.957992501029774e-17,0,1.0000000000000175,0,0,1,0,0,-1.0000000000000175,0,-9.957992501029774e-17,0,2.06083203452811,0.5,-9.000000000000227,1],"children":[12,13,14]},{"name":"Rectangle 3","matrix":[1.02,0,0,0,0,1.0200000000000014,0,0,0,0,1.02,0,1,0,-520.5496091361792,1],"mesh":0},{"name":"Rectangle","matrix":[1.05,0,0,0,0,1.05,0,0,0,0,1,0,2.924049891106506e-14,0,-548.4613358265342,1],"mesh":1},{"name":"Rectangle 2","matrix":[1.02,0,0,0,0,1.02,0,0,0,0,1.02,0,1,0,-516.4613358265342,1],"mesh":2},{"name":"Rectangle 3","matrix":[1.02,0,0,0,0,1.0200000000000014,0,0,0,0,1.02,0,1,0,-520.5496091361792,1],"mesh":3},{"name":"Rectangle","matrix":[1.05,0,0,0,0,1.05,0,0,0,0,1,0,1.4210854715202004e-14,-4.440892098500626e-16,-548.4613358265345,1],"mesh":4},{"name":"Rectangle 2","matrix":[1.02,0,0,0,0,1.02,0,0,0,0,1.02,0,1,0,-516.4613358265342,1],"mesh":5},{"name":"Rectangle 3","matrix":[1.02,0,0,0,0,1.02,0,0,0,0,1.0199999999999987,0,1,0,-520.5496091361792,1],"mesh":6},{"name":"Rectangle","matrix":[1.05,0,0,0,0,1.05,0,0,0,0,1,0,3.4409974869475946e-14,0,-548.4613358265341,1],"mesh":7},{"name":"Rectangle 2","matrix":[1.02,0,0,0,0,1.02,0,0,0,0,1.02,0,1,0,-516.4613358265342,1],"mesh":8}],"cameras":[{"type":"orthographic","orthographic":{"xmag":1536,"ymag":754,"zfar":100000,"znear":-100000}}],"meshes":[{"primitives":[{"attributes":{"POSITION":1,"NORMAL":2,"TEXCOORD_0":3},"indices":0}]},{"primitives":[{"attributes":{"POSITION":5,"NORMAL":6,"TEXCOORD_0":7},"indices":4}]},{"primitives":[{"attributes":{"POSITION":9,"NORMAL":10,"TEXCOORD_0":11},"indices":8}]},{"primitives":[{"attributes":{"POSITION":13,"NORMAL":14,"TEXCOORD_0":15},"indices":12}]},{"primitives":[{"attributes":{"POSITION":17,"NORMAL":18,"TEXCOORD_0":19},"indices":16}]},{"primitives":[{"attributes":{"POSITION":21,"NORMAL":22,"TEXCOORD_0":23},"indices":20}]},{"primitives":[{"attributes":{"POSITION":25,"NORMAL":26,"TEXCOORD_0":27},"indices":24}]},{"primitives":[{"attributes":{"POSITION":29,"NORMAL":30,"TEXCOORD_0":31},"indices":28}]},{"primitives":[{"attributes":{"POSITION":33,"NORMAL":34,"TEXCOORD_0":35},"indices":32}]}],"buffers":[{"uri":"data:application/octet-stream;base64,","byteLength":70800},{"uri":"data:application/octet-stream;base64,","byteLength":464400},{"uri":"data:application/octet-stream;base64,","byteLength":70800},{"uri":"data:application/octet-stream;base64,","byteLength":70800},{"uri":"data:application/octet-stream;base64,","byteLength":464400},{"uri":"data:application/octet-stream;base64,","byteLength":70800},{"uri":"data:application/octet-stream;base64,","byteLength":70800},{"uri":"data:application/octet-stream;base64,","byteLength":464400},{"uri":"data:application/octet-stream;base64,","byteLength":70800}],"bufferViews":[{"buffer":0,"byteOffset":0,"byteLength":7824,"target":34963},{"buffer":0,"byteOffset":7824,"byteLength":20992,"target":34962},{"buffer":0,"byteOffset":28816,"byteLength":20992,"target":34962},{"buffer":0,"byteOffset":49808,"byteLength":20992,"target":34962},{"buffer":1,"byteOffset":0,"byteLength":86544,"target":34963},{"buffer":1,"byteOffset":86544,"byteLength":125952,"target":34962},{"buffer":1,"byteOffset":212496,"byteLength":125952,"target":34962},{"buffer":1,"byteOffset":338448,"byteLength":125952,"target":34962},{"buffer":2,"byteOffset":0,"byteLength":7824,"target":34963},{"buffer":2,"byteOffset":7824,"byteLength":20992,"target":34962},{"buffer":2,"byteOffset":28816,"byteLength":20992,"target":34962},{"buffer":2,"byteOffset":49808,"byteLength":20992,"target":34962},{"buffer":3,"byteOffset":0,"byteLength":7824,"target":34963},{"buffer":3,"byteOffset":7824,"byteLength":20992,"target":34962},{"buffer":3,"byteOffset":28816,"byteLength":20992,"target":34962},{"buffer":3,"byteOffset":49808,"byteLength":20992,"target":34962},{"buffer":4,"byteOffset":0,"byteLength":86544,"target":34963},{"buffer":4,"byteOffset":86544,"byteLength":125952,"target":34962},{"buffer":4,"byteOffset":212496,"byteLength":125952,"target":34962},{"buffer":4,"byteOffset":338448,"byteLength":125952,"target":34962},{"buffer":5,"byteOffset":0,"byteLength":7824,"target":34963},{"buffer":5,"byteOffset":7824,"byteLength":20992,"target":34962},{"buffer":5,"byteOffset":28816,"byteLength":20992,"target":34962},{"buffer":5,"byteOffset":49808,"byteLength":20992,"target":34962},{"buffer":6,"byteOffset":0,"byteLength":7824,"target":34963},{"buffer":6,"byteOffset":7824,"byteLength":20992,"target":34962},{"buffer":6,"byteOffset":28816,"byteLength":20992,"target":34962},{"buffer":6,"byteOffset":49808,"byteLength":20992,"target":34962},{"buffer":7,"byteOffset":0,"byteLength":86544,"target":34963},{"buffer":7,"byteOffset":86544,"byteLength":125952,"target":34962},{"buffer":7,"byteOffset":212496,"byteLength":125952,"target":34962},{"buffer":7,"byteOffset":338448,"byteLength":125952,"target":34962},{"buffer":8,"byteOffset":0,"byteLength":7824,"target":34963},{"buffer":8,"byteOffset":7824,"byteLength":20992,"target":34962},{"buffer":8,"byteOffset":28816,"byteLength":20992,"target":34962},{"buffer":8,"byteOffset":49808,"byteLength":20992,"target":34962}],"accessors":[{"bufferView":0,"byteOffset":0,"componentType":5125,"count":1956,"type":"SCALAR","min":[0],"max":[655]},{"bufferView":1,"byteOffset":0,"componentType":5126,"count":656,"type":"VEC3","min":[-407,-284,0],"max":[407,284,8]},{"bufferView":2,"byteOffset":0,"componentType":5126,"count":656,"type":"VEC3","min":[-1,-1,-1],"max":[1,1,1]},{"bufferView":3,"byteOffset":0,"componentType":5126,"count":656,"type":"VEC2","min":[0,0],"max":[1,1]},{"bufferView":4,"byteOffset":0,"componentType":5125,"count":21636,"type":"SCALAR","min":[0],"max":[3935]},{"bufferView":5,"byteOffset":0,"componentType":5126,"count":3936,"type":"VEC3","min":[-439.5199890136719,-319.4800109863281,0],"max":[439.5199890136719,319.4800109863281,32]},{"bufferView":6,"byteOffset":0,"componentType":5126,"count":3936,"type":"VEC3","min":[-1,-1,-1],"max":[1,1,1]},{"bufferView":7,"byteOffset":0,"componentType":5126,"count":3936,"type":"VEC2","min":[0,0],"max":[1,1]},{"bufferView":8,"byteOffset":0,"componentType":5125,"count":1956,"type":"SCALAR","min":[0],"max":[655]},{"bufferView":9,"byteOffset":0,"componentType":5126,"count":656,"type":"VEC3","min":[-407,-284,0],"max":[407,284,1]},{"bufferView":10,"byteOffset":0,"componentType":5126,"count":656,"type":"VEC3","min":[-1,-1,-1],"max":[1,1,1]},{"bufferView":11,"byteOffset":0,"componentType":5126,"count":656,"type":"VEC2","min":[0,0],"max":[1,1]},{"bufferView":12,"byteOffset":0,"componentType":5125,"count":1956,"type":"SCALAR","min":[0],"max":[655]},{"bufferView":13,"byteOffset":0,"componentType":5126,"count":656,"type":"VEC3","min":[-407,-284,0],"max":[407,284,8]},{"bufferView":14,"byteOffset":0,"componentType":5126,"count":656,"type":"VEC3","min":[-1,-1,-1],"max":[1,1,1]},{"bufferView":15,"byteOffset":0,"componentType":5126,"count":656,"type":"VEC2","min":[0,0],"max":[1,1]},{"bufferView":16,"byteOffset":0,"componentType":5125,"count":21636,"type":"SCALAR","min":[0],"max":[3935]},{"bufferView":17,"byteOffset":0,"componentType":5126,"count":3936,"type":"VEC3","min":[-439.5199890136719,-319.4800109863281,0],"max":[439.5199890136719,319.4800109863281,32]},{"bufferView":18,"byteOffset":0,"componentType":5126,"count":3936,"type":"VEC3","min":[-1,-1,-1],"max":[1,1,1]},{"bufferView":19,"byteOffset":0,"componentType":5126,"count":3936,"type":"VEC2","min":[0,0],"max":[1,1]},{"bufferView":20,"byteOffset":0,"componentType":5125,"count":1956,"type":"SCALAR","min":[0],"max":[655]},{"bufferView":21,"byteOffset":0,"componentType":5126,"count":656,"type":"VEC3","min":[-407,-284,0],"max":[407,284,1]},{"bufferView":22,"byteOffset":0,"componentType":5126,"count":656,"type":"VEC3","min":[-1,-1,-1],"max":[1,1,1]},{"bufferView":23,"byteOffset":0,"componentType":5126,"count":656,"type":"VEC2","min":[0,0],"max":[1,1]},{"bufferView":24,"byteOffset":0,"componentType":5125,"count":1956,"type":"SCALAR","min":[0],"max":[655]},{"bufferView":25,"byteOffset":0,"componentType":5126,"count":656,"type":"VEC3","min":[-407,-284,0],"max":[407,284,8]},{"bufferView":26,"byteOffset":0,"componentType":5126,"count":656,"type":"VEC3","min":[-1,-1,-1],"max":[1,1,1]},{"bufferView":27,"byteOffset":0,"componentType":5126,"count":656,"type":"VEC2","min":[0,0],"max":[1,1]},{"bufferView":28,"byteOffset":0,"componentType":5125,"count":21636,"type":"SCALAR","min":[0],"max":[3935]},{"bufferView":29,"byteOffset":0,"componentType":5126,"count":3936,"type":"VEC3","min":[-439.5199890136719,-319.4800109863281,0],"max":[439.5199890136719,319.4800109863281,32]},{"bufferView":30,"byteOffset":0,"componentType":5126,"count":3936,"type":"VEC3","min":[-1,-1,-1],"max":[1,1,1]},{"bufferView":31,"byteOffset":0,"componentType":5126,"count":3936,"type":"VEC2","min":[0,0],"max":[1,1]},{"bufferView":32,"byteOffset":0,"componentType":5125,"count":1956,"type":"SCALAR","min":[0],"max":[655]},{"bufferView":33,"byteOffset":0,"componentType":5126,"count":656,"type":"VEC3","min":[-407,-284,0],"max":[407,284,1]},{"bufferView":34,"byteOffset":0,"componentType":5126,"count":656,"type":"VEC3","min":[-1,-1,-1],"max":[1,1,1]},{"bufferView":35,"byteOffset":0,"componentType":5126,"count":656,"type":"VEC2","min":[0,0],"max":[1,1]}],"extensions":{"KHR_lights_punctual":{"lights":[]}},"extensionsUsed":["KHR_lights_punctual"]}